{"title":"Out.of.the.Dark.2014.1080p.BluRay.x264.DTS-RARBG","uid":12008979,"size":7152436939,"categoryP":"video","categoryS":"hd___movies","magnet":"?xt=urn:btih:0bae96640794232331ac3cfd9318625890f2e426&amp;dn=Out.of.the.Dark.2014.1080p.BluRay.x264.DTS-RARBG&amp;tr=udp%3A%2F%2Ftracker.openbittorrent.com%3A80&amp;tr=udp%3A%2F%2Fopen.demonii.com%3A1337&amp;tr=udp%3A%2F%2Ftracker.coppersurfer.tk%3A6969&amp;tr=udp%3A%2F%2Fexodus.desync.com%3A6969","seeders":7,"leechers":5,"uploader":"makintos13","files":4,"time":1434051846,"description":"Out.of.the.Dark.2014.1080p.BluRay.x264.DTS-RARBG\n\nscreens:\n &lt;a href=&quot;\nhttp://imgmak.com/HU&quot; rel=&quot;nofollow&quot; target=&quot;_NEW&quot;&gt;\nhttp://imgmak.com/HU&lt;/a&gt;\n &lt;a href=&quot;\nhttp://imgmak.com/H3&quot; rel=&quot;nofollow&quot; target=&quot;_NEW&quot;&gt;\nhttp://imgmak.com/H3&lt;/a&gt;\n &lt;a href=&quot;\nhttp://imgmak.com/HG&quot; rel=&quot;nofollow&quot; target=&quot;_NEW&quot;&gt;\nhttp://imgmak.com/HG&lt;/a&gt;\n &lt;a href=&quot;\nhttp://imgmak.com/HH&quot; rel=&quot;nofollow&quot; target=&quot;_NEW&quot;&gt;\nhttp://imgmak.com/HH&lt;/a&gt;\n\n:::::::::::::::::::::::::\n\nVideo\nID                                       : 1\nFormat                                   : AVC\nFormat/Info                              : Advanced Video Codec\nFormat profile                           : &lt;a class=&quot;__cf_email__&quot; href=&quot;/cdn-cgi/l/email-protection&quot; data-cfemail=&quot;135b7a747b535f273d22&quot;&gt;[email&amp;#160;protected]&lt;/a&gt;&lt;script data-cfhash='f9e31' type=&quot;text/javascript&quot;&gt;\n/* &lt;![CDATA[ */!function(){try{var t=&quot;currentScript&quot;in document?document.currentScript:function(){for(var t=document.getElementsByTagName(&quot;script&quot;),e=t.length;e--;)if(t[e].getAttribute(&quot;data-cfhash&quot;))return t[e]}();if(t&amp;&amp;t.previousSibling){var e,r,n,i,c=t.previousSibling,a=c.getAttribute(&quot;data-cfemail&quot;);if(a){for(e=&quot;&quot;,r=parseInt(a.substr(0,2),16),n=2;a.length-n;n+=2)i=parseInt(a.substr(n,2),16)^r,e+=String.fromCharCode(i);e=document.createTextNode(e),c.parentNode.replaceChild(e,c)}t.parentNode.removeChild(t);}}catch(u){}}()/* ]]&gt; */&lt;/script&gt;\nFormat settings, CABAC                   : Yes\nFormat settings, ReFrames                : 5 frames\nCodec ID                                 : V_MPEG4/ISO/AVC\nDuration                                 : 1h 33mn\nBit rate                                 : 8 689 Kbps\nWidth                                    : 1 920 pixels\nHeight                                   : 800 pixels\nDisplay aspect ratio                     : 2.40:1\nFrame rate mode                          : Constant\nFrame rate                               : 23.976 fps\nColor space                              : YUV\nChroma subsampling                       : 4:2:0\nBit depth                                : 8 bits\nScan type                                : Progressive\nBits/(Pixel*Frame)                       : 0.236\nStream size                              : 5.54 GiB (83%)\nTitle                                    : Out.of.the.Dark.2014.1080p.BluRay.x264.DTS-RARBG\nWriting library                          : x264 core 146 r2538 121396c\nEncoding settings                        : cabac=1 / ref=5 / deblock=1:1:1 / analyse=0x3:0x133 / me=umh / subme=7 / psy=1 / psy_rd=1.00:0.00 / mixed_ref=1 / me_range=16 / chroma_me=1 / trellis=1 / 8x8dct=1 / cqm=0 / deadzone=21,11 / fast_pskip=0 / chroma_qp_offset=-2 / threads=12 / lookahead_threads=2 / sliced_threads=0 / nr=0 / decimate=1 / interlaced=0 / bluray_compat=0 / constrained_intra=0 / bframes=3 / b_pyramid=2 / b_adapt=2 / b_bias=0 / direct=3 / weightb=1 / open_gop=0 / weightp=2 / keyint=240 / keyint_min=24 / scenecut=40 / intra_refresh=0 / rc_lookahead=50 / rc=2pass / mbtree=1 / bitrate=8689 / ratetol=1.0 / qcomp=0.60 / qpmin=0 / qpmax=69 / qpstep=4 / cplxblur=20.0 / qblur=0.5 / ip_ratio=1.40 / aq=1:1.00\nLanguage                                 : English\nDefault                                  : Yes\nForced                                   : No\n\nAudio\nID                                       : 2\nFormat                                   : DTS\nFormat/Info                              : Digital Theater Systems\nMode                                     : 16\nFormat settings, Endianness              : Big\nCodec ID                                 : A_DTS\nDuration                                 : 1h 33mn\nBit rate mode                            : Constant\nBit rate                                 : 1 509 Kbps\nChannel(s)                               : 6 channels\nChannel positions                        : Front: L C R, Side: L R, LFE\nSampling rate                            : 48.0 KHz\nBit depth                                : 24 bits\nCompression mode                         : Lossy\nStream size                              : 1 009 MiB (15%)\nTitle                                    : Out.of.the.Dark.2014.1080p.BluRay.x264.DTS-RARBG\nLanguage                                 : English\nDefault                                  : Yes\nForced                                   : No\n\nMenu\n00:00:00.000                             : en:00:00:00.000\n00:07:02.964                             : en:00:07:02.964\n00:11:18.303                             : en:00:11:18.303\n00:17:54.198                             : en:00:17:54.198\n00:23:45.674                             : en:00:23:45.674\n00:27:25.352                             : en:00:27:25.352\n00:32:34.119                             : en:00:32:34.119\n00:39:01.256                             : en:00:39:01.256\n00:43:59.262                             : en:00:43:59.262\n00:50:20.392                             : en:00:50:20.392\n00:58:07.526                             : en:00:58:07.526\n01:04:08.053                             : en:01:04:08.053\n01:10:21.384                             : en:01:10:21.384\n01:16:30.211                             : en:01:16:30.211\n01:21:52.449                             : en:01:21:52.449\n01:27:40.088                             : en:01:27:40.088","torrent":{"xt":"urn:btih:0bae96640794232331ac3cfd9318625890f2e426","amp;dn":"Out.of.the.Dark.2014.1080p.BluRay.x264.DTS-RARBG","amp;tr":["udp%3A%2F%2Ftracker.openbittorrent.com%3A80","udp%3A%2F%2Fopen.demonii.com%3A1337","udp%3A%2F%2Ftracker.coppersurfer.tk%3A6969","udp%3A%2F%2Fexodus.desync.com%3A6969"],"infoHash":"0bae96640794232331ac3cfd9318625890f2e426","infoHashBuffer":{"type":"Buffer","data":[11,174,150,100,7,148,35,35,49,172,60,253,147,24,98,88,144,242,228,38]},"announce":[],"urlList":[]}}